<?xml version="1.0" encoding="UTF-8"?>
<svg width="512" height="512" viewBox="0 0 512 512" fill="none" xmlns="http://www.w3.org/2000/svg">
  <circle cx="256" cy="256" r="240" fill="#0284C7" />
  <circle cx="256" cy="256" r="180" fill="#E0F2FE" />
  <circle cx="256" cy="256" r="60" fill="#0284C7" />
  <circle cx="256" cy="256" r="20" fill="#E0F2FE" />
  <path d="M256 80C155.84 80 74.667 161.173 74.667 261.333C74.667 361.493 155.84 442.667 256 442.667C356.16 442.667 437.333 361.493 437.333 261.333C437.333 161.173 356.16 80 256 80ZM256 416C170.667 416 101.333 346.667 101.333 261.333C101.333 176 170.667 106.667 256 106.667C341.333 106.667 410.667 176 410.667 261.333C410.667 346.667 341.333 416 256 416Z" fill="#0284C7" />
</svg> 